<?xml version="1.0" encoding="UTF-8" standalone="no"?><!DOCTYPE svg PUBLIC "-//W3C//DTD SVG 1.1//EN" "http://www.w3.org/Graphics/SVG/1.1/DTD/svg11.dtd"><!-- Generated by graphviz version 2.40.1 (20161225.0304)
 --><!-- Title: %0 Pages: 1 --><svg xmlns="http://www.w3.org/2000/svg" xmlns:xlink="http://www.w3.org/1999/xlink" width="5503pt" height="188pt" viewBox="0.00 0.00 5502.70 188.00">
<g id="graph0" class="graph" transform="scale(1 1) rotate(0) translate(4 184)">
<title>%0</title>
<polygon fill="#ffffff" stroke="transparent" points="-4,4 -4,-184 5498.7046,-184 5498.7046,4 -4,4"/>
<!-- 3188324811200 -->
<g id="node1" class="node">
<title>3188324811200</title>
<ellipse fill="none" stroke="#000000" cx="1001.6456" cy="-162" rx="96.6849" ry="18"/>
<text text-anchor="middle" x="1001.6456" y="-157.8" font-family="Times,serif" font-size="14.00" fill="#000000">IDENTIFIER(ROOT)</text>
</g>
<!-- 3188324811296 -->
<g id="node2" class="node">
<title>3188324811296</title>
<ellipse fill="none" stroke="#000000" cx="293.6456" cy="-90" rx="92.6151" ry="18"/>
<text text-anchor="middle" x="293.6456" y="-85.8" font-family="Times,serif" font-size="14.00" fill="#000000">KEYWORD(import)</text>
</g>
<!-- 3188324811200&#45;&gt;3188324811296 -->
<g id="edge1" class="edge">
<title>3188324811200-&gt;3188324811296</title>
<path fill="none" stroke="#000000" d="M911.5701,-155.3406C796.0434,-146.4295 589.5853,-129.2566 413.6456,-108 401.2685,-106.5046 388.2011,-104.7387 375.424,-102.9073"/>
<polygon fill="#000000" stroke="#000000" points="375.6576,-99.4045 365.2579,-101.4283 374.6498,-106.3316 375.6576,-99.4045"/>
</g>
<!-- 3188324811440 -->
<g id="node6" class="node">
<title>3188324811440</title>
<ellipse fill="none" stroke="#000000" cx="513.6456" cy="-90" rx="90.8916" ry="18"/>
<text text-anchor="middle" x="513.6456" y="-85.8" font-family="Times,serif" font-size="14.00" fill="#000000">KEYWORD(public)</text>
</g>
<!-- 3188324811200&#45;&gt;3188324811440 -->
<g id="edge5" class="edge">
<title>3188324811200-&gt;3188324811440</title>
<path fill="none" stroke="#000000" d="M921.6243,-151.8089C843.0758,-141.5825 719.9281,-124.9545 613.6456,-108 605.9903,-106.7788 598.0166,-105.4465 590.0592,-104.0771"/>
<polygon fill="#000000" stroke="#000000" points="590.466,-100.5954 580.0138,-102.3284 589.2654,-107.4917 590.466,-100.5954"/>
</g>
<!-- 3188324812064 -->
<g id="node7" class="node">
<title>3188324812064</title>
<ellipse fill="none" stroke="#000000" cx="708.6456" cy="-90" rx="85.6493" ry="18"/>
<text text-anchor="middle" x="708.6456" y="-85.8" font-family="Times,serif" font-size="14.00" fill="#000000">KEYWORD(class)</text>
</g>
<!-- 3188324811200&#45;&gt;3188324812064 -->
<g id="edge6" class="edge">
<title>3188324811200-&gt;3188324812064</title>
<path fill="none" stroke="#000000" d="M943.0568,-147.6028C894.3654,-135.6376 825.114,-118.6202 774.5084,-106.1847"/>
<polygon fill="#000000" stroke="#000000" points="775.1939,-102.7491 764.6475,-103.7616 773.5234,-109.5469 775.1939,-102.7491"/>
</g>
<!-- 3188324811776 -->
<g id="node9" class="node">
<title>3188324811776</title>
<ellipse fill="none" stroke="#000000" cx="903.6456" cy="-90" rx="90.8916" ry="18"/>
<text text-anchor="middle" x="903.6456" y="-85.8" font-family="Times,serif" font-size="14.00" fill="#000000">KEYWORD(public)</text>
</g>
<!-- 3188324811200&#45;&gt;3188324811776 -->
<g id="edge8" class="edge">
<title>3188324811200-&gt;3188324811776</title>
<path fill="none" stroke="#000000" d="M977.6721,-144.3868C965.002,-135.0782 949.2803,-123.5276 935.5887,-113.4685"/>
<polygon fill="#000000" stroke="#000000" points="937.5027,-110.5316 927.3716,-107.4313 933.3581,-116.1727 937.5027,-110.5316"/>
</g>
<!-- 3188324811872 -->
<g id="node10" class="node">
<title>3188324811872</title>
<ellipse fill="none" stroke="#000000" cx="1099.6456" cy="-90" rx="87.3731" ry="18"/>
<text text-anchor="middle" x="1099.6456" y="-85.8" font-family="Times,serif" font-size="14.00" fill="#000000">KEYWORD(static)</text>
</g>
<!-- 3188324811200&#45;&gt;3188324811872 -->
<g id="edge9" class="edge">
<title>3188324811200-&gt;3188324811872</title>
<path fill="none" stroke="#000000" d="M1025.6191,-144.3868C1038.2891,-135.0782 1054.0108,-123.5276 1067.7024,-113.4685"/>
<polygon fill="#000000" stroke="#000000" points="1069.933,-116.1727 1075.9196,-107.4313 1065.7884,-110.5316 1069.933,-116.1727"/>
</g>
<!-- 3188324812112 -->
<g id="node11" class="node">
<title>3188324812112</title>
<ellipse fill="none" stroke="#000000" cx="1288.6456" cy="-90" rx="83.9508" ry="18"/>
<text text-anchor="middle" x="1288.6456" y="-85.8" font-family="Times,serif" font-size="14.00" fill="#000000">KEYWORD(void)</text>
</g>
<!-- 3188324811200&#45;&gt;3188324812112 -->
<g id="edge10" class="edge">
<title>3188324811200-&gt;3188324812112</title>
<path fill="none" stroke="#000000" d="M1059.379,-147.5163C1107.0052,-135.5683 1174.5398,-118.6258 1223.976,-106.2237"/>
<polygon fill="#000000" stroke="#000000" points="1225.0756,-109.5564 1233.9234,-103.7282 1223.3722,-102.7668 1225.0756,-109.5564"/>
</g>
<!-- 3188324812736 -->
<g id="node17" class="node">
<title>3188324812736</title>
<ellipse fill="none" stroke="#000000" cx="2643.6456" cy="-90" rx="82.7859" ry="18"/>
<text text-anchor="middle" x="2643.6456" y="-85.8" font-family="Times,serif" font-size="14.00" fill="#000000">KEYWORD(new)</text>
</g>
<!-- 3188324811200&#45;&gt;3188324812736 -->
<g id="edge16" class="edge">
<title>3188324811200-&gt;3188324812736</title>
<path fill="none" stroke="#000000" d="M1096.1234,-157.8572C1386.7335,-145.1143 2265.007,-106.6029 2551.8992,-94.023"/>
<polygon fill="#000000" stroke="#000000" points="2552.4252,-97.5034 2562.2622,-93.5686 2552.1184,-90.5101 2552.4252,-97.5034"/>
</g>
<!-- 3188324813696 -->
<g id="node27" class="node">
<title>3188324813696</title>
<ellipse fill="none" stroke="#000000" cx="4475.6456" cy="-90" rx="77.0043" ry="18"/>
<text text-anchor="middle" x="4475.6456" y="-85.8" font-family="Times,serif" font-size="14.00" fill="#000000">KEYWORD(int)</text>
</g>
<!-- 3188324811200&#45;&gt;3188324813696 -->
<g id="edge26" class="edge">
<title>3188324811200-&gt;3188324813696</title>
<path fill="none" stroke="#000000" d="M1098.186,-159.9992C1600.3537,-149.5915 3909.1097,-101.7417 4388.3772,-91.8087"/>
<polygon fill="#000000" stroke="#000000" points="4388.7602,-95.3016 4398.6854,-91.595 4388.615,-88.3031 4388.7602,-95.3016"/>
</g>
<!-- 3188324811584 -->
<g id="node3" class="node">
<title>3188324811584</title>
<ellipse fill="none" stroke="#000000" cx="86.6456" cy="-18" rx="86.7914" ry="18"/>
<text text-anchor="middle" x="86.6456" y="-13.8" font-family="Times,serif" font-size="14.00" fill="#000000">IDENTIFIER(java)</text>
</g>
<!-- 3188324811296&#45;&gt;3188324811584 -->
<g id="edge2" class="edge">
<title>3188324811296-&gt;3188324811584</title>
<path fill="none" stroke="#000000" d="M248.4743,-74.2883C216.8588,-63.2916 174.4622,-48.5449 140.9952,-36.9042"/>
<polygon fill="#000000" stroke="#000000" points="141.9591,-33.5339 131.3643,-33.5544 139.6594,-40.1454 141.9591,-33.5339"/>
</g>
<!-- 3188324811392 -->
<g id="node4" class="node">
<title>3188324811392</title>
<ellipse fill="none" stroke="#000000" cx="274.6456" cy="-18" rx="83.3789" ry="18"/>
<text text-anchor="middle" x="274.6456" y="-13.8" font-family="Times,serif" font-size="14.00" fill="#000000">IDENTIFIER(util)</text>
</g>
<!-- 3188324811296&#45;&gt;3188324811392 -->
<g id="edge3" class="edge">
<title>3188324811296-&gt;3188324811392</title>
<path fill="none" stroke="#000000" d="M288.8511,-71.8314C286.7967,-64.0463 284.3495,-54.7729 282.07,-46.1347"/>
<polygon fill="#000000" stroke="#000000" points="285.4404,-45.1892 279.5046,-36.4133 278.6721,-46.9753 285.4404,-45.1892"/>
</g>
<!-- 3188324812016 -->
<g id="node5" class="node">
<title>3188324812016</title>
<ellipse fill="none" stroke="#000000" cx="477.6456" cy="-18" rx="101.8206" ry="18"/>
<text text-anchor="middle" x="477.6456" y="-13.8" font-family="Times,serif" font-size="14.00" fill="#000000">IDENTIFIER(Scanner)</text>
</g>
<!-- 3188324811296&#45;&gt;3188324812016 -->
<g id="edge4" class="edge">
<title>3188324811296-&gt;3188324812016</title>
<path fill="none" stroke="#000000" d="M334.9387,-73.8418C361.8788,-63.3 397.2549,-49.4572 426.0448,-38.1916"/>
<polygon fill="#000000" stroke="#000000" points="427.4971,-41.3818 435.5341,-34.4784 424.9462,-34.8631 427.4971,-41.3818"/>
</g>
<!-- 3188324811680 -->
<g id="node8" class="node">
<title>3188324811680</title>
<ellipse fill="none" stroke="#000000" cx="688.6456" cy="-18" rx="90.8858" ry="18"/>
<text text-anchor="middle" x="688.6456" y="-13.8" font-family="Times,serif" font-size="14.00" fill="#000000">IDENTIFIER(Main)</text>
</g>
<!-- 3188324812064&#45;&gt;3188324811680 -->
<g id="edge7" class="edge">
<title>3188324812064-&gt;3188324811680</title>
<path fill="none" stroke="#000000" d="M703.5987,-71.8314C701.4362,-64.0463 698.8603,-54.7729 696.4608,-46.1347"/>
<polygon fill="#000000" stroke="#000000" points="699.8092,-45.1117 693.7604,-36.4133 693.0645,-46.9852 699.8092,-45.1117"/>
</g>
<!-- 3188324812256 -->
<g id="node12" class="node">
<title>3188324812256</title>
<ellipse fill="none" stroke="#000000" cx="887.6456" cy="-18" rx="89.7421" ry="18"/>
<text text-anchor="middle" x="887.6456" y="-13.8" font-family="Times,serif" font-size="14.00" fill="#000000">IDENTIFIER(main)</text>
</g>
<!-- 3188324812112&#45;&gt;3188324812256 -->
<g id="edge11" class="edge">
<title>3188324812112-&gt;3188324812256</title>
<path fill="none" stroke="#000000" d="M1226.6478,-77.8161C1216.3019,-75.8358 1205.6754,-73.8342 1195.6456,-72 1102.9265,-55.0437 1079.4592,-52.4308 986.6456,-36 979.3496,-34.7084 971.7536,-33.3507 964.1574,-31.9842"/>
<polygon fill="#000000" stroke="#000000" points="964.659,-28.5183 954.1965,-30.1876 963.4164,-35.4071 964.659,-28.5183"/>
</g>
<!-- 3188324812352 -->
<g id="node13" class="node">
<title>3188324812352</title>
<ellipse fill="none" stroke="#000000" cx="1089.6456" cy="-18" rx="94.335" ry="18"/>
<text text-anchor="middle" x="1089.6456" y="-13.8" font-family="Times,serif" font-size="14.00" fill="#000000">IDENTIFIER(String)</text>
</g>
<!-- 3188324812112&#45;&gt;3188324812352 -->
<g id="edge12" class="edge">
<title>3188324812112-&gt;3188324812352</title>
<path fill="none" stroke="#000000" d="M1245.4655,-74.3771C1215.5266,-63.5449 1175.4441,-49.0427 1143.4298,-37.4596"/>
<polygon fill="#000000" stroke="#000000" points="1144.3677,-34.077 1133.7734,-33.9659 1141.9861,-40.6594 1144.3677,-34.077"/>
</g>
<!-- 3188324812448 -->
<g id="node14" class="node">
<title>3188324812448</title>
<ellipse fill="none" stroke="#000000" cx="1288.6456" cy="-18" rx="86.7914" ry="18"/>
<text text-anchor="middle" x="1288.6456" y="-13.8" font-family="Times,serif" font-size="14.00" fill="#000000">IDENTIFIER(args)</text>
</g>
<!-- 3188324812112&#45;&gt;3188324812448 -->
<g id="edge13" class="edge">
<title>3188324812112-&gt;3188324812448</title>
<path fill="none" stroke="#000000" d="M1288.6456,-71.8314C1288.6456,-64.131 1288.6456,-54.9743 1288.6456,-46.4166"/>
<polygon fill="#000000" stroke="#000000" points="1292.1457,-46.4132 1288.6456,-36.4133 1285.1457,-46.4133 1292.1457,-46.4132"/>
</g>
<!-- 3188324812544 -->
<g id="node15" class="node">
<title>3188324812544</title>
<ellipse fill="none" stroke="#000000" cx="1494.6456" cy="-18" rx="101.8206" ry="18"/>
<text text-anchor="middle" x="1494.6456" y="-13.8" font-family="Times,serif" font-size="14.00" fill="#000000">IDENTIFIER(Scanner)</text>
</g>
<!-- 3188324812112&#45;&gt;3188324812544 -->
<g id="edge14" class="edge">
<title>3188324812112-&gt;3188324812544</title>
<path fill="none" stroke="#000000" d="M1332.5851,-74.6425C1363.6663,-63.7791 1405.5847,-49.1281 1439.002,-37.4482"/>
<polygon fill="#000000" stroke="#000000" points="1440.3458,-40.6862 1448.631,-34.0828 1438.0362,-34.0782 1440.3458,-40.6862"/>
</g>
<!-- 3188324812640 -->
<g id="node16" class="node">
<title>3188324812640</title>
<ellipse fill="none" stroke="#000000" cx="1714.6456" cy="-18" rx="100.0949" ry="18"/>
<text text-anchor="middle" x="1714.6456" y="-13.8" font-family="Times,serif" font-size="14.00" fill="#000000">IDENTIFIER(scanner)</text>
</g>
<!-- 3188324812112&#45;&gt;3188324812640 -->
<g id="edge15" class="edge">
<title>3188324812112-&gt;3188324812640</title>
<path fill="none" stroke="#000000" d="M1354.7406,-78.829C1429.2594,-66.2343 1550.5509,-45.7343 1631.4547,-32.0604"/>
<polygon fill="#000000" stroke="#000000" points="1632.3302,-35.4622 1641.607,-30.3445 1631.1635,-28.5601 1632.3302,-35.4622"/>
</g>
<!-- 3188324812832 -->
<g id="node18" class="node">
<title>3188324812832</title>
<ellipse fill="none" stroke="#000000" cx="1934.6456" cy="-18" rx="101.8206" ry="18"/>
<text text-anchor="middle" x="1934.6456" y="-13.8" font-family="Times,serif" font-size="14.00" fill="#000000">IDENTIFIER(Scanner)</text>
</g>
<!-- 3188324812736&#45;&gt;3188324812832 -->
<g id="edge17" class="edge">
<title>3188324812736-&gt;3188324812832</title>
<path fill="none" stroke="#000000" d="M2564.1336,-84.6173C2449.3776,-76.441 2230.7731,-59.3393 2045.6456,-36 2036.6131,-34.8613 2027.1882,-33.5401 2017.8134,-32.1408"/>
<polygon fill="#000000" stroke="#000000" points="2018.0947,-28.6433 2007.6815,-30.5966 2017.04,-35.5634 2018.0947,-28.6433"/>
</g>
<!-- 3188324812928 -->
<g id="node19" class="node">
<title>3188324812928</title>
<ellipse fill="none" stroke="#000000" cx="2153.6456" cy="-18" rx="98.9897" ry="18"/>
<text text-anchor="middle" x="2153.6456" y="-13.8" font-family="Times,serif" font-size="14.00" fill="#000000">IDENTIFIER(System)</text>
</g>
<!-- 3188324812736&#45;&gt;3188324812928 -->
<g id="edge18" class="edge">
<title>3188324812736-&gt;3188324812928</title>
<path fill="none" stroke="#000000" d="M2572.8118,-80.5201C2496.0652,-70.1245 2370.0456,-52.6925 2261.6456,-36 2253.341,-34.7212 2244.6844,-33.3473 2236.0449,-31.9494"/>
<polygon fill="#000000" stroke="#000000" points="2236.3656,-28.4556 2225.9328,-30.3015 2235.2396,-35.3644 2236.3656,-28.4556"/>
</g>
<!-- 3188324813024 -->
<g id="node20" class="node">
<title>3188324813024</title>
<ellipse fill="none" stroke="#000000" cx="2348.6456" cy="-18" rx="78.1443" ry="18"/>
<text text-anchor="middle" x="2348.6456" y="-13.8" font-family="Times,serif" font-size="14.00" fill="#000000">IDENTIFIER(in)</text>
</g>
<!-- 3188324812736&#45;&gt;3188324813024 -->
<g id="edge19" class="edge">
<title>3188324812736-&gt;3188324813024</title>
<path fill="none" stroke="#000000" d="M2588.5044,-76.5418C2538.5273,-64.344 2464.8793,-46.3689 2412.3929,-33.5587"/>
<polygon fill="#000000" stroke="#000000" points="2413.0653,-30.1201 2402.5205,-31.1491 2411.4055,-36.9205 2413.0653,-30.1201"/>
</g>
<!-- 3188324813120 -->
<g id="node21" class="node">
<title>3188324813120</title>
<ellipse fill="none" stroke="#000000" cx="2543.6456" cy="-18" rx="98.9897" ry="18"/>
<text text-anchor="middle" x="2543.6456" y="-13.8" font-family="Times,serif" font-size="14.00" fill="#000000">IDENTIFIER(System)</text>
</g>
<!-- 3188324812736&#45;&gt;3188324813120 -->
<g id="edge20" class="edge">
<title>3188324812736-&gt;3188324813120</title>
<path fill="none" stroke="#000000" d="M2619.6931,-72.7542C2606.7735,-63.4521 2590.6348,-51.8323 2576.5526,-41.6931"/>
<polygon fill="#000000" stroke="#000000" points="2578.2578,-38.608 2568.0973,-35.6053 2574.1676,-44.2887 2578.2578,-38.608"/>
</g>
<!-- 3188324813216 -->
<g id="node22" class="node">
<title>3188324813216</title>
<ellipse fill="none" stroke="#000000" cx="2743.6456" cy="-18" rx="82.8013" ry="18"/>
<text text-anchor="middle" x="2743.6456" y="-13.8" font-family="Times,serif" font-size="14.00" fill="#000000">IDENTIFIER(out)</text>
</g>
<!-- 3188324812736&#45;&gt;3188324813216 -->
<g id="edge21" class="edge">
<title>3188324812736-&gt;3188324813216</title>
<path fill="none" stroke="#000000" d="M2667.598,-72.7542C2680.6133,-63.3832 2696.8956,-51.66 2711.0511,-41.468"/>
<polygon fill="#000000" stroke="#000000" points="2713.4716,-44.0381 2719.5419,-35.3546 2709.3815,-38.3573 2713.4716,-44.0381"/>
</g>
<!-- 3188324813312 -->
<g id="node23" class="node">
<title>3188324813312</title>
<ellipse fill="none" stroke="#000000" cx="2933.6456" cy="-18" rx="88.5986" ry="18"/>
<text text-anchor="middle" x="2933.6456" y="-13.8" font-family="Times,serif" font-size="14.00" fill="#000000">IDENTIFIER(print)</text>
</g>
<!-- 3188324812736&#45;&gt;3188324813312 -->
<g id="edge22" class="edge">
<title>3188324812736-&gt;3188324813312</title>
<path fill="none" stroke="#000000" d="M2698.5333,-76.3727C2746.4099,-64.4861 2816.0019,-47.2081 2867.0516,-34.5337"/>
<polygon fill="#000000" stroke="#000000" points="2868.1405,-37.8697 2877.0024,-32.0631 2866.4537,-31.0759 2868.1405,-37.8697"/>
</g>
<!-- 3188324813408 -->
<g id="node24" class="node">
<title>3188324813408</title>
<ellipse fill="none" stroke="#000000" cx="3131.6456" cy="-18" rx="91.4461" ry="18"/>
<text text-anchor="middle" x="3131.6456" y="-13.8" font-family="Times,serif" font-size="14.00" fill="#000000">IDENTIFIER(Enter)</text>
</g>
<!-- 3188324812736&#45;&gt;3188324813408 -->
<g id="edge23" class="edge">
<title>3188324812736-&gt;3188324813408</title>
<path fill="none" stroke="#000000" d="M2715.2842,-80.898C2793.2439,-70.7904 2921.5012,-53.5705 3031.6456,-36 3039.2395,-34.7886 3047.147,-33.4678 3055.0409,-32.11"/>
<polygon fill="#000000" stroke="#000000" points="3055.7561,-35.5382 3065.0081,-30.3758 3054.5561,-28.6418 3055.7561,-35.5382"/>
</g>
<!-- 3188324813504 -->
<g id="node25" class="node">
<title>3188324813504</title>
<ellipse fill="none" stroke="#000000" cx="3315.6456" cy="-18" rx="74.6937" ry="18"/>
<text text-anchor="middle" x="3315.6456" y="-13.8" font-family="Times,serif" font-size="14.00" fill="#000000">IDENTIFIER(a)</text>
</g>
<!-- 3188324812736&#45;&gt;3188324813504 -->
<g id="edge24" class="edge">
<title>3188324812736-&gt;3188324813504</title>
<path fill="none" stroke="#000000" d="M2724.3823,-85.6484C2838.0483,-78.8273 3051.5115,-63.4709 3231.6456,-36 3238.1836,-35.0029 3244.977,-33.8112 3251.7411,-32.5222"/>
<polygon fill="#000000" stroke="#000000" points="3252.465,-35.9469 3261.5972,-30.5753 3251.1085,-29.0796 3252.465,-35.9469"/>
</g>
<!-- 3188324813600 -->
<g id="node26" class="node">
<title>3188324813600</title>
<ellipse fill="none" stroke="#000000" cx="3508.6456" cy="-18" rx="100.1181" ry="18"/>
<text text-anchor="middle" x="3508.6456" y="-13.8" font-family="Times,serif" font-size="14.00" fill="#000000">IDENTIFIER(number)</text>
</g>
<!-- 3188324812736&#45;&gt;3188324813600 -->
<g id="edge25" class="edge">
<title>3188324812736-&gt;3188324813600</title>
<path fill="none" stroke="#000000" d="M2725.2671,-86.6443C2864.138,-80.3819 3155.1156,-64.8613 3399.6456,-36 3408.6679,-34.9351 3418.0831,-33.6481 3427.437,-32.2575"/>
<polygon fill="#000000" stroke="#000000" points="3428.1847,-35.684 3437.5413,-30.7136 3427.1274,-28.7643 3428.1847,-35.684"/>
</g>
<!-- 3188324813792 -->
<g id="node28" class="node">
<title>3188324813792</title>
<ellipse fill="none" stroke="#000000" cx="3726.6456" cy="-18" rx="100.1181" ry="18"/>
<text text-anchor="middle" x="3726.6456" y="-13.8" font-family="Times,serif" font-size="14.00" fill="#000000">IDENTIFIER(number)</text>
</g>
<!-- 3188324813696&#45;&gt;3188324813792 -->
<g id="edge27" class="edge">
<title>3188324813696-&gt;3188324813792</title>
<path fill="none" stroke="#000000" d="M4400.5618,-85.6062C4280.7942,-78.1611 4039.2432,-61.3594 3835.6456,-36 3826.7001,-34.8858 3817.3653,-33.574 3808.0856,-32.1747"/>
<polygon fill="#000000" stroke="#000000" points="3808.4757,-28.6935 3798.0588,-30.6272 3807.4079,-35.6116 3808.4757,-28.6935"/>
</g>
<!-- 3188324813888 -->
<g id="node29" class="node">
<title>3188324813888</title>
<ellipse fill="none" stroke="#000000" cx="3944.6456" cy="-18" rx="100.0949" ry="18"/>
<text text-anchor="middle" x="3944.6456" y="-13.8" font-family="Times,serif" font-size="14.00" fill="#000000">IDENTIFIER(scanner)</text>
</g>
<!-- 3188324813696&#45;&gt;3188324813888 -->
<g id="edge28" class="edge">
<title>3188324813696-&gt;3188324813888</title>
<path fill="none" stroke="#000000" d="M4406.463,-81.9304C4322.7837,-71.9891 4177.7009,-54.1741 4053.6456,-36 4045.1658,-34.7577 4036.3254,-33.4007 4027.5087,-32.0069"/>
<polygon fill="#000000" stroke="#000000" points="4028.0118,-28.5429 4017.5849,-30.4217 4026.9076,-35.4553 4028.0118,-28.5429"/>
</g>
<!-- 3188324813984 -->
<g id="node30" class="node">
<title>3188324813984</title>
<ellipse fill="none" stroke="#000000" cx="4160.6456" cy="-18" rx="97.8286" ry="18"/>
<text text-anchor="middle" x="4160.6456" y="-13.8" font-family="Times,serif" font-size="14.00" fill="#000000">IDENTIFIER(nextInt)</text>
</g>
<!-- 3188324813696&#45;&gt;3188324813984 -->
<g id="edge29" class="edge">
<title>3188324813696-&gt;3188324813984</title>
<path fill="none" stroke="#000000" d="M4420.4163,-77.3762C4368.067,-65.4106 4289.1609,-47.3749 4232.0535,-34.3218"/>
<polygon fill="#000000" stroke="#000000" points="4232.5418,-30.8432 4222.0133,-32.0269 4230.982,-37.6672 4232.5418,-30.8432"/>
</g>
<!-- 3188324814080 -->
<g id="node31" class="node">
<title>3188324814080</title>
<ellipse fill="none" stroke="#000000" cx="4375.6456" cy="-18" rx="98.9897" ry="18"/>
<text text-anchor="middle" x="4375.6456" y="-13.8" font-family="Times,serif" font-size="14.00" fill="#000000">IDENTIFIER(System)</text>
</g>
<!-- 3188324813696&#45;&gt;3188324814080 -->
<g id="edge30" class="edge">
<title>3188324813696-&gt;3188324814080</title>
<path fill="none" stroke="#000000" d="M4451.6931,-72.7542C4438.7735,-63.4521 4422.6348,-51.8323 4408.5526,-41.6931"/>
<polygon fill="#000000" stroke="#000000" points="4410.2578,-38.608 4400.0973,-35.6053 4406.1676,-44.2887 4410.2578,-38.608"/>
</g>
<!-- 3188324814176 -->
<g id="node32" class="node">
<title>3188324814176</title>
<ellipse fill="none" stroke="#000000" cx="4575.6456" cy="-18" rx="82.8013" ry="18"/>
<text text-anchor="middle" x="4575.6456" y="-13.8" font-family="Times,serif" font-size="14.00" fill="#000000">IDENTIFIER(out)</text>
</g>
<!-- 3188324813696&#45;&gt;3188324814176 -->
<g id="edge31" class="edge">
<title>3188324813696-&gt;3188324814176</title>
<path fill="none" stroke="#000000" d="M4499.598,-72.7542C4512.6133,-63.3832 4528.8956,-51.66 4543.0511,-41.468"/>
<polygon fill="#000000" stroke="#000000" points="4545.4716,-44.0381 4551.5419,-35.3546 4541.3815,-38.3573 4545.4716,-44.0381"/>
</g>
<!-- 3188324814272 -->
<g id="node33" class="node">
<title>3188324814272</title>
<ellipse fill="none" stroke="#000000" cx="4772.6456" cy="-18" rx="96.1228" ry="18"/>
<text text-anchor="middle" x="4772.6456" y="-13.8" font-family="Times,serif" font-size="14.00" fill="#000000">IDENTIFIER(println)</text>
</g>
<!-- 3188324813696&#45;&gt;3188324814272 -->
<g id="edge32" class="edge">
<title>3188324813696-&gt;3188324814272</title>
<path fill="none" stroke="#000000" d="M4529.43,-76.9613C4578.2699,-65.1214 4650.5689,-47.5944 4703.6494,-34.7264"/>
<polygon fill="#000000" stroke="#000000" points="4704.7675,-38.0567 4713.6614,-32.2992 4703.1183,-31.2538 4704.7675,-38.0567"/>
</g>
<!-- 3188324814368 -->
<g id="node34" class="node">
<title>3188324814368</title>
<ellipse fill="none" stroke="#000000" cx="4973.6456" cy="-18" rx="87.377" ry="18"/>
<text text-anchor="middle" x="4973.6456" y="-13.8" font-family="Times,serif" font-size="14.00" fill="#000000">IDENTIFIER(You)</text>
</g>
<!-- 3188324813696&#45;&gt;3188324814368 -->
<g id="edge33" class="edge">
<title>3188324813696-&gt;3188324814368</title>
<path fill="none" stroke="#000000" d="M4544.4463,-81.8589C4624.6234,-72.1169 4761.0168,-54.7543 4877.6456,-36 4884.9794,-34.8207 4892.6142,-33.518 4900.2322,-32.1685"/>
<polygon fill="#000000" stroke="#000000" points="4900.988,-35.5889 4910.2106,-30.3742 4899.749,-28.6994 4900.988,-35.5889"/>
</g>
<!-- 3188324814464 -->
<g id="node35" class="node">
<title>3188324814464</title>
<ellipse fill="none" stroke="#000000" cx="5177.6456" cy="-18" rx="98.9511" ry="18"/>
<text text-anchor="middle" x="5177.6456" y="-13.8" font-family="Times,serif" font-size="14.00" fill="#000000">IDENTIFIER(entered)</text>
</g>
<!-- 3188324813696&#45;&gt;3188324814464 -->
<g id="edge34" class="edge">
<title>3188324813696-&gt;3188324814464</title>
<path fill="none" stroke="#000000" d="M4549.9228,-85.0329C4662.5706,-77.0968 4883.2371,-59.9733 5069.6456,-36 5078.3439,-34.8813 5087.4148,-33.5813 5096.4414,-32.2015"/>
<polygon fill="#000000" stroke="#000000" points="5097.2521,-35.6174 5106.5918,-30.6152 5096.1713,-28.7013 5097.2521,-35.6174"/>
</g>
<!-- 3188324814560 -->
<g id="node36" class="node">
<title>3188324814560</title>
<ellipse fill="none" stroke="#000000" cx="5394.6456" cy="-18" rx="100.1181" ry="18"/>
<text text-anchor="middle" x="5394.6456" y="-13.8" font-family="Times,serif" font-size="14.00" fill="#000000">IDENTIFIER(number)</text>
</g>
<!-- 3188324813696&#45;&gt;3188324814560 -->
<g id="edge35" class="edge">
<title>3188324813696-&gt;3188324814560</title>
<path fill="none" stroke="#000000" d="M4552.0876,-87.3795C4696.0346,-81.8962 5017.0121,-67.0609 5285.6456,-36 5294.6704,-34.9565 5304.0872,-33.6829 5313.442,-32.3001"/>
<polygon fill="#000000" stroke="#000000" points="5314.1874,-35.7271 5323.547,-30.7625 5313.1343,-28.8067 5314.1874,-35.7271"/>
</g>
</g>
</svg>